<svg height="1024" width="1024" xmlns="http://www.w3.org/2000/svg" xmlns:xlink="http://www.w3.org/1999/xlink" version="1.1" x="0px" y="0px" viewBox="0 0 64 64"><path d="M13.417,15.502c-0.829,0-1.5-0.671-1.5-1.5V2.585c0-0.829,0.671-1.5,1.5-1.5H45.76c0.828,0,1.5,0.671,1.5,1.5 s-0.672,1.5-1.5,1.5H14.917v9.917C14.917,14.831,14.245,15.502,13.417,15.502z"></path><path d="M57.75,62.919H13.417c-0.829,0-1.5-0.672-1.5-1.5V28.502c0-0.829,0.671-1.5,1.5-1.5s1.5,0.671,1.5,1.5v31.417H56.25V14.439 c0-0.829,0.672-1.5,1.5-1.5s1.5,0.671,1.5,1.5v46.979C59.25,62.247,58.578,62.919,57.75,62.919z"></path><path d="M35.584,30.002H6.25c-0.829,0-1.5-0.671-1.5-1.5v-14.5c0-0.829,0.671-1.5,1.5-1.5h29.333c0.828,0,1.5,0.671,1.5,1.5v14.5 C37.084,29.331,36.412,30.002,35.584,30.002z M7.75,27.002h26.333v-11.5H7.75V27.002z"></path><path d="M57.75,15.611c-0.381,0-0.763-0.144-1.055-0.433L45.033,3.648c-0.589-0.583-0.595-1.532-0.012-2.122 c0.582-0.589,1.533-0.595,2.121-0.012l11.662,11.53c0.589,0.583,0.595,1.532,0.012,2.122C58.523,15.463,58.137,15.611,57.75,15.611z "></path><path d="M45.76,15.398c-0.828,0-1.5-0.671-1.5-1.5V2.585c0-0.829,0.672-1.5,1.5-1.5s1.5,0.671,1.5,1.5v11.313 C47.26,14.727,46.588,15.398,45.76,15.398z"></path><path d="M57.074,15.398H45.76c-0.828,0-1.5-0.671-1.5-1.5s0.672-1.5,1.5-1.5h11.314c0.828,0,1.5,0.671,1.5,1.5 S57.902,15.398,57.074,15.398z"></path><path d="M16.062,20.742c-0.138-0.098-0.291-0.188-0.457-0.27c0.305-0.014,0.573-0.144,0.777-0.375 c0.202-0.229,0.309-0.504,0.309-0.798c0-0.265-0.066-0.535-0.198-0.802c-0.127-0.258-0.325-0.503-0.588-0.729 c-0.259-0.221-0.583-0.399-0.962-0.528c-0.834-0.283-2.087-0.246-2.924,0.093c-0.496,0.201-0.885,0.498-1.154,0.882 c-0.274,0.391-0.413,0.84-0.413,1.337c0,0.52,0.135,0.968,0.402,1.334c0.254,0.347,0.597,0.622,1.016,0.815 c0.375,0.175,0.842,0.329,1.392,0.457c0.363,0.083,0.653,0.161,0.871,0.235c0.155,0.053,0.275,0.123,0.366,0.217 c0.034,0.035,0.074,0.093,0.074,0.228c0,0.098-0.024,0.216-0.201,0.349c-0.18,0.134-0.432,0.201-0.75,0.201 c-0.287,0-0.444-0.051-0.528-0.094c-0.119-0.062-0.205-0.133-0.264-0.218c-0.084-0.122-0.166-0.281-0.241-0.469 c-0.104-0.267-0.234-0.47-0.398-0.62c-0.429-0.396-1.152-0.351-1.551,0.06c-0.213,0.218-0.325,0.495-0.325,0.801 c0,0.397,0.129,0.803,0.383,1.204c0.245,0.386,0.568,0.698,0.964,0.933c0.535,0.311,1.207,0.468,1.999,0.468 c0.658,0,1.242-0.113,1.735-0.338c0.516-0.234,0.917-0.568,1.192-0.994c0.275-0.425,0.415-0.909,0.415-1.438 c0-0.438-0.083-0.824-0.249-1.146C16.588,21.216,16.355,20.949,16.062,20.742z M14.773,20.155c-0.252-0.078-0.523-0.15-0.809-0.218 c-0.313-0.078-0.536-0.139-0.672-0.179c-0.105-0.032-0.212-0.077-0.318-0.136c-0.073-0.04-0.128-0.084-0.18-0.201 c0-0.026,0-0.09,0.136-0.187c0.142-0.102,0.348-0.153,0.614-0.153c0.395,0,0.528,0.085,0.559,0.111 c0.125,0.104,0.239,0.261,0.348,0.483C14.558,19.878,14.663,20.035,14.773,20.155z"></path><path d="M23.891,18.85c0.037-0.099,0.066-0.2,0.09-0.302c0.028-0.12,0.043-0.237,0.043-0.347c0-0.195-0.054-0.385-0.159-0.564 c-0.104-0.177-0.249-0.32-0.428-0.424c-0.431-0.25-0.983-0.197-1.313,0.071c-0.161,0.131-0.279,0.286-0.353,0.458 c-0.046,0.106-0.115,0.296-0.206,0.569l-1.152,3.428l-1.145-3.388c-0.123-0.381-0.246-0.659-0.376-0.852 c-0.138-0.204-0.413-0.447-0.939-0.447c-0.336,0-0.634,0.123-0.861,0.356c-0.224,0.229-0.342,0.507-0.342,0.803 c0,0.102,0.014,0.216,0.044,0.348c0.026,0.118,0.06,0.229,0.098,0.331l1.79,4.875c0.064,0.186,0.128,0.359,0.192,0.525 c0.074,0.19,0.164,0.366,0.267,0.523c0.126,0.19,0.293,0.346,0.499,0.462c0.211,0.119,0.46,0.179,0.74,0.179 c0.284,0,0.535-0.063,0.747-0.185c0.2-0.116,0.365-0.27,0.489-0.455c0.104-0.156,0.191-0.328,0.265-0.521 c0.064-0.166,0.129-0.343,0.188-0.518l1.738-4.688L23.891,18.85z"></path><path d="M31.298,21.077c-0.154-0.22-0.37-0.37-0.623-0.436c-0.12-0.031-0.252-0.051-0.399-0.062c0.25-0.033,0.477-0.142,0.666-0.319 c0.233-0.222,0.357-0.509,0.357-0.829c0-0.255-0.077-0.523-0.235-0.817c-0.146-0.272-0.361-0.53-0.64-0.766 c-0.277-0.234-0.635-0.428-1.063-0.576c-0.929-0.322-2.241-0.284-3.188,0.067c-0.527,0.195-0.983,0.482-1.355,0.855 c-0.374,0.374-0.659,0.832-0.85,1.361c-0.186,0.517-0.279,1.088-0.279,1.697c0,0.623,0.097,1.199,0.288,1.713 c0.195,0.523,0.48,0.978,0.849,1.349c0.368,0.373,0.818,0.66,1.337,0.854c0.508,0.189,1.073,0.285,1.679,0.285 c0.514,0,0.997-0.06,1.438-0.178c0.437-0.118,0.894-0.305,1.357-0.556c0.186-0.101,0.344-0.21,0.47-0.326 c0.161-0.147,0.273-0.319,0.334-0.506c0.054-0.162,0.08-0.356,0.08-0.595v-1.372C31.52,21.564,31.448,21.288,31.298,21.077z M28.393,20.572c-0.323,0-0.594,0.095-0.805,0.283c-0.223,0.198-0.34,0.464-0.34,0.769c0,0.372,0.161,0.673,0.452,0.846 c0.219,0.129,0.502,0.191,0.868,0.191h0.623v0.354c-0.182,0.084-0.362,0.152-0.539,0.205c-0.247,0.074-0.518,0.111-0.803,0.111 c-0.541,0-0.944-0.164-1.232-0.503c-0.305-0.357-0.459-0.9-0.459-1.614c0-0.338,0.042-0.644,0.126-0.91 c0.079-0.254,0.191-0.467,0.332-0.633c0.14-0.163,0.303-0.284,0.497-0.37c0.198-0.087,0.433-0.131,0.697-0.131 c0.251,0,0.45,0.033,0.593,0.1c0.145,0.067,0.257,0.146,0.333,0.235c0.112,0.129,0.248,0.323,0.431,0.606 c0.111,0.149,0.252,0.268,0.416,0.352c0.104,0.053,0.211,0.089,0.321,0.109H28.393z"></path></svg>